<svg width="4125" height="1440" viewBox="0 0 4125 1440" fill="none" xmlns="http://www.w3.org/2000/svg">
<path d="M1000.44 642.621L997.2 645.491L986.35 644.461L984.46 657.621C967.87 656.481 952.92 659.871 937.76 665.881C919.95 672.951 889.91 686.911 907.45 709.601C919.39 715.971 930.83 723.161 941.41 731.601C946.67 735.791 970.18 761.871 976.36 757.461C990.7 715.861 1012.3 676.971 1035.58 639.801C1160.48 440.311 1419.49 205.801 1670.98 222.031C1872.37 235.031 1870.24 439.701 1822.43 588.441C1885.23 687.641 1881.86 822.481 1838.24 928.721C1829.94 948.931 1809.32 979.221 1803.94 996.351C1803.62 997.371 1803.39 999.611 1804.9 999.301C1811.85 993.671 1819.08 981.151 1828.89 981.221C1832.35 981.241 1832.31 981.701 1832.72 985.101C1834.42 999.081 1813.04 1028.39 1806.19 1042.56C1791.87 1072.13 1779.2 1107.11 1767.9 1138.15C1757 1168.1 1733.12 1228.39 1731.94 1258.16C1730.36 1297.98 1757.6 1279.57 1772.77 1260.9C1797.29 1230.74 1829.17 1167.96 1847.61 1131.9C1853.94 1119.53 1856.32 1102.93 1868.01 1094.35C1872.95 1090.73 1892.8 1081.06 1896.98 1087.11C1901.2 1109 1886.38 1127.94 1879.33 1147.63C1871.96 1168.21 1864.92 1191.33 1860.51 1212.74C1855.79 1235.66 1850.08 1260.42 1858.86 1283.07C1867.5 1293.31 1893.77 1264.8 1899.92 1258.13C1917.97 1238.55 1931.81 1215.26 1947.78 1194.08L1953.82 1193.15L1955.81 1203.12C1968.96 1149.9 1986.3 1097.64 2007.8 1047.29L1905.88 1055.25C1905.21 1050.63 1906.97 1047.33 1911.4 1045.8L2011.84 1034.31C2023.89 1010.92 2034.12 986.751 2047.44 964.001C2068.62 927.821 2093.57 885.191 2139.72 881.441C2120.76 910.321 2101.79 939.521 2085.41 969.991C2082.03 976.281 2055.42 1026.99 2057.78 1029.27C2087.03 1029.81 2117.67 1022.34 2146.63 1021.21C2149.96 1021.08 2165.78 1020.24 2165.67 1024.28L2159.56 1030.12L2050.76 1043.24C2015.57 1128.58 1980.23 1219.7 1970.12 1312.3C1968.49 1327.25 1961.61 1382.66 1981.21 1386.48C1994.87 1389.15 2001.57 1381.08 2011.6 1373.75C2074.44 1327.83 2116.64 1258.49 2163.76 1198.18C2166.62 1194.52 2172.52 1191.73 2173.67 1189.58C2180.21 1177.33 2187.67 1136.55 2193.16 1119.65C2201.1 1095.22 2210.4 1071.18 2219.67 1047.27C2189.82 1057.89 2158.24 1073.41 2125.81 1065.12L2125.73 1059.28C2161.67 1057.71 2195.67 1047.34 2226.6 1029.21C2256.7 961.231 2291.01 893.841 2334.81 833.661C2360.59 798.241 2409.35 731.511 2458.57 737.491C2476.86 739.721 2487.43 760.121 2489.28 776.701C2498.78 862.071 2360.73 962.821 2297.45 1004.11C2288.58 1009.9 2272.86 1016.51 2265.71 1022.33C2254.85 1031.17 2222.97 1124.58 2217.14 1143.62C2199.37 1201.68 2182.44 1275.28 2187.62 1336.05C2191.18 1377.8 2213.68 1365.58 2237.45 1347.76C2281.03 1315.1 2312.92 1254.91 2343.15 1209.65C2354.82 1192.17 2380.04 1163.35 2388 1146.58C2397.26 1127.07 2403.96 1099.26 2413.2 1077.86C2422.44 1056.46 2439.25 1017.04 2450.7 999.451C2455.56 991.981 2466.03 985.921 2474.4 983.191C2481.15 980.991 2498.18 976.491 2497.52 988.111C2471.82 1046.57 2434.23 1106.92 2418.57 1169.14C2413.63 1188.76 2403.94 1239.76 2439.61 1230.13C2459.43 1224.78 2515.05 1154.15 2523.52 1134.2C2538.68 1098.5 2547.39 1055.08 2560.91 1017.72C2572.68 985.211 2582.88 950.061 2625.11 951.621C2627.47 955.731 2627.38 958.831 2626.6 963.361C2623.54 981.241 2596 1029.36 2587.08 1049.88C2579.23 1067.92 2570.87 1086.21 2565.47 1105.19C2576.41 1089.68 2584.4 1071.75 2594.6 1055.41C2613.97 1024.39 2653.72 959.781 2692.36 955.331C2732.41 950.711 2735.08 976.621 2728.03 1008.97C2720.94 1041.5 2704.41 1077.01 2694.84 1109.66C2691.06 1122.56 2671.54 1189.27 2681.25 1196.27C2682.2 1196.97 2683.26 1197.13 2684.4 1197.22C2698.79 1198.37 2741.36 1152.29 2751.29 1140.12C2793.87 1087.9 2803.66 1012.32 2873.9 982.951C2903.25 970.681 2950.42 967.161 2954.98 1008.5C2962.07 1072.84 2861.99 1133.44 2807.32 1144.17C2791.72 1173.03 2780.27 1264.92 2806.26 1287.07C2828.14 1305.73 2865.3 1277.88 2882.31 1263.1C2939.31 1213.58 2978.26 1146.58 3021.58 1085.64C3037.48 1082.02 3025.59 1098.74 3022 1105.02C3002.82 1138.49 2971.91 1182.09 2948.85 1213.72C2919.15 1254.46 2870.87 1308.78 2817.76 1314.44C2743.18 1322.38 2743.27 1205.6 2757.33 1157.15C2736.87 1180.26 2690.39 1236.64 2656.52 1230.96C2648.68 1229.64 2644.67 1221.94 2642.48 1215.04C2624.92 1159.77 2689.12 1068.25 2697.11 1010.02C2702.35 971.791 2688.6 956.311 2658.37 987.261C2623.39 1023.08 2571.31 1120.29 2546.45 1167.1C2541.61 1176.22 2530.9 1205.01 2524.28 1208.87C2515.07 1214.23 2507 1208.61 2504.47 1199.17C2503.25 1194.6 2505.12 1186.98 2501.55 1185.14C2483.13 1214.99 2446.89 1261.19 2407.06 1254.58C2375.1 1249.27 2376.94 1207.89 2379.38 1183.88C2379.59 1181.78 2380.9 1178.61 2377.63 1179.15L2256.71 1357C2242.64 1371.03 2227.47 1387.7 2208.17 1394.4C2147.28 1415.52 2146.26 1354.87 2151.77 1312.04L2166.75 1215.12C2146.41 1243.42 2127.22 1272.5 2105.7 1299.95C2081.52 1330.78 2019.27 1406.63 1983.46 1417.53C1916.14 1438.03 1929.58 1351.38 1934.15 1312.28C1938.38 1276.13 1946.74 1240.71 1953.86 1205.12C1929.06 1234.52 1908.92 1278.91 1876.59 1300.69C1852.66 1316.82 1822.75 1323.69 1816.87 1287.14C1811.96 1256.64 1823.37 1226.79 1827.94 1197.13L1781.01 1269.08C1724.89 1335.15 1689.04 1288.56 1703.35 1217.42C1713.58 1166.56 1740.02 1116.67 1759.98 1069.24C1655.09 1212.96 1505.29 1335.81 1330.71 1382.38C1223.98 1410.85 1123.82 1415.53 1033.53 1344.92C1025.37 1338.54 1019.47 1326.57 1007.3 1327.08C1003.53 1327.24 1001.72 1332.93 998.02 1335.51C988.66 1342.01 951.08 1361.42 946.43 1367.86C945.34 1369.38 930.4 1399.47 929.88 1401.27C927.29 1410.29 932.05 1423.24 922.59 1426.1C917.25 1427.72 913.51 1424.9 908.13 1425.3C900.52 1425.87 895.89 1431.08 891.01 1432.35C880.33 1435.13 856.8 1438.54 845.69 1438.98C816.7 1440.12 789.09 1426.84 760.05 1426.5C754.58 1424.95 743.18 1403.13 737.68 1396.91C733.48 1392.16 728.26 1389.77 724.63 1385.98C721.81 1383.05 720.8 1376.96 717.84 1374.79C709.15 1368.46 696.45 1379.74 686.61 1370.03C684.95 1368.39 674.2 1350.66 672.93 1347.74C669.68 1340.28 669.17 1332 666.26 1324.44C661.54 1312.17 639.08 1277.61 626.81 1273.86C619.12 1271.51 617.34 1276.28 611.64 1276.93C600.64 1278.2 586.36 1275.34 576.88 1284.13C565.48 1294.7 579.18 1299.49 580.49 1304.33C583.97 1317.13 556.18 1308.24 551.75 1309.21C546.64 1310.32 545.95 1315.05 539.88 1315.14C529.49 1315.3 516.66 1302.31 504.98 1309.2L506.88 1322.01C506.18 1332.64 492.52 1322.94 488.1 1323.45C483.45 1323.99 482.31 1329.62 474.39 1328.65C459.49 1326.83 449.83 1312.74 434.82 1312.04L433.85 1306.99C447.63 1297.17 433.19 1287 435.11 1274.37C436.67 1269.68 448.67 1267.71 452.25 1264.42C456.9 1260.16 458.33 1242.42 466.93 1247.95C470.17 1250.04 470.54 1259.81 478.79 1262.24C484.37 1263.88 497.42 1262.17 502.23 1258.41L514.81 1245.06C504.55 1247.19 499.17 1247.39 491.74 1239.15C487.82 1234.81 487.6 1228.11 481.79 1226.98C461.09 1226.32 450.94 1245.55 430.21 1232.72C423.8 1228.75 400.72 1202.04 399.18 1195.6C398 1190.68 403.96 1187.94 404.43 1183.83C404.87 1179.96 400.85 1175.26 400.87 1171.12L387.13 1175.34C385.22 1204.67 351.61 1186.93 333.94 1186.93C319.83 1186.93 300.86 1193.22 285.53 1192.66C264.46 1200.61 277.82 1209.6 276.67 1215.54C276.34 1217.25 270.59 1233.4 269.42 1236.5C263.52 1252.03 256.05 1246.15 245.5 1250.55C241.1 1252.38 239.1 1258.22 233.91 1259.07C224 1260.7 213.46 1251.43 198.92 1255.93C186.57 1259.75 188.98 1271.61 183.15 1278.12C168.28 1294.7 162.66 1284.36 148.72 1280.37C140.76 1278.09 112.5 1276.32 110.99 1265.98C110.08 1259.72 115.73 1253.28 112.05 1245.09C107.34 1234.63 72.79 1240.48 88.43 1214.94C90.77 1214.43 104.84 1216.91 107.07 1218.1C112.53 1221.01 108.42 1228.3 115.09 1227.06C111.29 1205.31 129.79 1216.58 142 1217.16C145.47 1217.33 154.92 1219.26 153.06 1213.09C142.71 1217.81 134.18 1210.46 123.89 1209.31C117.55 1208.6 108.64 1210.85 104.86 1210.04C101.3 1209.28 97.59 1204.16 91.87 1203.73C86.79 1203.35 79.11 1206.63 73.14 1205.11C81.95 1213.97 73.74 1224.59 64.44 1228.91C53.83 1222.27 57.34 1206.64 46.18 1199.45L40.13 1202.96C37.48 1198.63 33.06 1195.09 30.32 1190.96C21.01 1176.94 43.43 1187.15 47.29 1184.29C50.17 1182.16 48.24 1175.88 50.08 1173.06C51.8 1170.43 57.31 1170.91 59.74 1169.22C61.83 1167.76 62.07 1164.73 65.64 1162.68C74.67 1157.49 84.93 1161.72 88.2 1159.35C96.42 1151.28 92.42 1140.35 90.53 1130.75C89.68 1126.43 85.63 1110.08 84.03 1107.27C78.99 1098.4 67.83 1102.61 60.3 1101.02C50.75 1099 44.83 1094.59 34.12 1095.05C23.49 1095.51 13.09 1102.44 2.29 1103.13L0 1099.1L5.32 1074.34L1.19 1070.24C6.93 1060.26 15.57 1063.09 23.24 1060.3C35.83 1055.72 48.62 1039.17 55.16 1036.27C60.08 1034.09 65.25 1036.22 69.77 1034.89C74.29 1033.56 74.29 1028.34 75.5 1027.65C79.5 1025.39 88.87 1029.62 96.15 1021.31C102.44 1014.14 96.64 1011.14 97.54 1006.48C98.02 1003.99 102.37 1002.3 102.84 999.981C103.58 996.401 93.22 987.691 109.67 980.751C116.72 977.781 119.77 982.251 126.24 983.141C134.3 984.241 141.01 981.091 148.11 987.241C152.52 991.061 151.86 997.371 160.02 997.431C177.22 997.561 169 979.311 180.52 977.641C189.73 976.311 190.88 986.061 194.34 987.081C197.4 987.981 203.17 984.331 207.04 985.271C197.98 958.711 226.35 965.581 240.06 947.361C245.48 940.151 247.33 923.821 253 920.251C258.68 916.671 262.9 926.011 268.99 925.331C264.61 908.871 294.1 905.371 306.3 903.501C308.44 903.171 324.88 901.151 325.89 901.171C333.33 901.391 337.8 908.731 344.98 906.561C347.12 905.911 359.2 894.011 361.86 891.261C363.86 889.201 363.92 885.101 365.42 883.861C367.19 882.391 373.71 882.131 376.96 880.411C389.86 873.591 399.32 849.351 411.91 849.541C415.39 849.591 418.17 853.101 421.83 853.221C430.18 853.501 448.02 835.221 456.18 829.741C461.42 826.221 468.72 825.631 474.73 820.311C480.37 815.331 505.65 776.821 509.2 768.851C520.93 742.581 524.47 716.561 531.8 689.541C536.93 670.651 546.76 650.911 540.38 629.031C539.31 625.361 525.14 600.281 521.85 593.611C518.56 586.941 511.01 580.331 510.68 572.641C510.35 564.951 517.68 548.871 521.78 541.661C534.66 519.001 551.38 518.421 534.41 487.141C528.29 475.861 502.54 444.911 501.15 436.281C500.78 433.991 500.37 431.941 501.8 429.851C526.71 412.261 503.54 391.711 496.75 370.931C475.8 359.221 457.52 367.261 435.34 369.311C430.57 371.041 430.81 375.251 430.79 379.741L402.75 378.701L399.04 388.971C390.05 389.601 376.55 390.341 371.12 399.021C369.11 402.241 369.49 406.511 367.77 409.661C365.24 414.301 357.63 417.241 356.84 422.911C355.82 430.171 362.27 432.851 362.92 438.941C364.5 453.601 356.19 447.721 350.92 450.751C348.46 452.171 347.7 458.451 343.54 459.501C331.98 462.421 333.97 442.821 325.03 434.691C304.64 416.141 303.99 442.581 293.18 444.831C289.73 445.551 286.73 442.421 283.94 442.521C280.26 442.661 277.68 448.121 272.14 447.821C268.26 447.611 265.14 443.471 261.01 443.781L254.1 457.161C222 451.231 245.99 433.371 253.1 416.911C254.89 412.771 254.19 406.781 256 403.831C257.51 401.361 263.3 400.361 266.03 397.871C280.44 384.741 285.58 369.321 303.08 354.981C306.69 352.021 312.24 351.181 315.98 347.901C320.01 344.371 320.57 336.941 327.83 337.771C344.88 359.151 366.27 310.771 377.85 303.851C383.46 300.501 389.6 301.801 394.93 296.951C397.41 294.701 409.83 280.591 411.75 277.801C419.21 266.931 420.02 253.921 418.71 241.121C418.22 236.321 414.84 232.111 414.83 227.011C414.83 222.821 418.58 218.241 415.93 214.011C415.12 212.721 405.21 206.591 403.48 206.341C394.72 205.081 385.74 213.751 386.88 194.011L376.18 195.881L367.54 179.861C362.52 176.651 358.06 180.991 353.85 178.251C345.03 172.511 348.61 160.681 346.51 153.451C346.2 152.391 335.14 136.571 334.07 135.931C322.6 129.021 310.09 145.181 301.47 124.551C299.42 119.631 299.43 110.551 296.16 107.881L271.92 104.141L264.83 85.2408C270.6 84.4108 272.38 74.5208 274.28 74.0408C277.45 73.2508 296.33 75.2808 299.56 76.5008C303.16 77.8608 303.2 82.1908 305.87 84.1708C310.17 87.3708 316.77 89.0808 320.9 94.1008C326.82 83.7008 315.44 78.7108 314.86 73.0508C314.28 67.3908 324.65 53.3908 324.66 45.1508C324.66 37.3708 315.38 26.0908 319.21 16.4608C324.17 13.4408 330.4 15.0608 335.42 13.6908C355.41 8.25082 374.62 -2.16918 397.66 0.400818C404.29 1.14082 411.63 4.37082 418.4 5.64082C435.96 8.93082 448.7 2.93082 453.19 24.9808C455.09 34.3208 448.73 41.5708 459.38 46.6308C462.32 48.0308 467.52 47.3108 469.03 49.3808C473.31 55.2208 471.76 68.5508 476.76 76.6508C479.16 80.5408 486.93 79.8408 480.81 90.0908C492.8 93.5308 506.89 77.0508 515.95 76.1308C518.55 75.8708 543.39 79.3608 547.76 80.1208C550.03 80.5208 551.53 81.1008 552.75 83.1708C553.9 87.0508 541.4 99.9808 538.39 104.711C532.03 114.701 531.89 126.971 516.8 130.101C516.82 139.151 523.28 133.731 527.33 134.441C530.09 134.931 532.25 137.661 535.68 137.831C548.78 138.461 563.89 123.121 575.36 117.691C586.34 112.491 595.98 109.141 607.33 103.691C630.35 92.6308 647.23 90.7308 617.08 68.8408L620.06 62.0408L640.88 63.0008C646.48 63.4008 645.46 72.6808 650 73.9208C652.51 74.6108 657.28 71.9408 661.41 72.2108C681.9 73.5508 685.92 89.8208 692.06 91.7008C741.03 106.701 777.12 74.5408 818.03 60.5708C825.98 57.8508 856.9 49.5808 863.59 50.0708C869.68 50.5208 868.17 58.1108 870.8 62.8708C876.89 73.9208 901.42 85.1008 912.35 93.2608C921.15 99.8308 941.96 122.181 948.58 125.141C951.35 126.381 969.99 123.171 978.6 124.941C993.36 127.971 1034.27 161.841 1034.3 177.021C1034.33 194.531 993.41 189.101 1019.51 211.931C1028.29 219.611 1037.86 225.671 1047.47 216.391C1056.34 221.271 1049.39 224.991 1048.53 231.081C1046.18 247.791 1056.91 251.161 1059.55 263.821C1061.02 270.851 1059.15 279.161 1060.8 284.551C1062.1 288.781 1067.07 288.801 1068.57 291.271C1070.29 294.101 1069.79 298.741 1071.53 301.801C1076.89 311.241 1085.67 305.301 1093.18 305.951C1097.33 306.311 1120.6 314.021 1122.55 316.721C1126.25 321.871 1118.64 352.061 1115.42 355.851C1113.21 358.451 1104.36 358.661 1099.41 361.821C1093.09 365.851 1089.53 375.181 1083.43 379.781C1079.35 379.841 1070.71 342.821 1047.45 342.861C1035.62 342.881 1031.99 352.111 1017.77 343.541C1012.57 340.411 1010.2 333.431 1003.58 333.741C997.12 334.321 988.58 356.731 971.27 357.781C965.65 358.121 962.67 354.291 957.44 357.661C949.43 362.821 954.51 372.441 950.68 378.491C948.85 381.381 940.24 381.871 938.8 387.081L946.52 400.761C931.23 406.491 936.62 416.291 930.52 428.921L936.72 449.551L962.34 445.931C963.87 469.371 974.46 459.281 985.29 465.951C989.62 468.621 997.22 481.581 1003.41 485.801C1009.05 489.651 1015.99 486.311 1016.64 496.721C1017.68 513.431 1005.69 501.041 999.56 501.651C983.46 503.251 982.47 537.261 978.65 546.841C976.73 551.641 972.4 553.821 970.08 558.251C965.24 567.501 964.49 583.441 956.36 590.491C953.11 593.311 945.1 594.941 943.4 597.611C940.19 602.661 947.08 607.921 948.62 612.501C949.86 616.181 950.5 629.551 953.5 629.561C958.33 627.191 955.36 619.481 956.73 617.841C957.01 617.501 962.7 616.691 965.17 615.321C972.83 611.061 986.32 596.491 994.48 600.561C996.02 601.871 1000.48 607.461 1000.48 608.621V642.591L1000.44 642.621ZM542.74 86.1508C533.86 86.6108 524.7 80.5008 515.84 82.1308C511.42 82.9408 507.88 88.5908 502.78 91.1408C498.3 93.3808 480.8 98.9008 476.81 97.1908C471.78 95.0308 475 89.9608 473.94 86.1508C471.75 78.2808 467.73 73.0408 465.29 66.6408C464.11 63.5508 465.63 58.7908 463.88 56.0608C462.68 54.2008 456.81 53.3708 454.06 51.8808C452.03 50.7808 450.35 47.8308 448.89 47.2908C445.9 46.2008 441.58 50.2408 438.85 45.1708C451.73 26.8308 449.79 14.2008 425.71 12.1008C421.34 11.7208 417.17 13.9808 414.04 13.6508C410.49 13.2708 405.3 7.74082 399.37 6.66082C395.22 5.90082 383.9 5.27082 380.25 6.15082C377.9 6.72082 377.87 12.6108 373.45 13.9208C368.59 15.3608 364.43 11.8308 360.36 12.6108C356.83 13.2908 349.38 18.3708 343.4 19.7108C339.04 20.6808 333.79 19.3408 330.18 20.4708C324.55 22.2408 329.35 38.3308 328.95 45.2308C328.15 59.0808 316.81 77.6508 333.95 86.1008L335 89.0808L321.03 104.831C322.29 109.011 329.58 110.991 331.01 113.471C333.55 117.891 331.94 123.661 333.92 128.051C335.9 132.441 349.66 142.501 353.83 154.181C355.75 159.561 352.36 166.841 355.3 169.561C359.1 173.081 367.07 170.771 370.9 173.011C374.51 175.111 374.21 185.071 378.04 185.921C387.71 184.771 387.7 172.921 396.21 168.231C409.91 160.681 409.83 189.311 393.13 188.291L392.78 196.691L412.21 205.701C416.8 206.121 420.25 197.121 424.07 196.491C426.25 196.131 429.17 198.121 431.72 197.931C439.98 197.301 449.19 183.421 455.82 178.041C461.14 173.731 469.64 173.131 471.92 166.161C473.34 161.831 471.8 156.901 474.64 152.891C476.62 150.081 492.38 143.341 497.45 139.721C503.16 135.641 517.06 124.721 521.87 120.171C530.79 111.721 533.97 95.4608 542.77 86.1308L542.74 86.1508ZM994.44 637.621V608.651L989.8 605.941C986.96 606.191 967.14 619.331 965.59 621.771C964.15 624.031 964.58 627.391 963.39 629.561C960.66 634.551 939.61 641.911 936.5 634.611C933.93 628.591 941.76 629.221 943.53 625.691C948.91 614.951 933.8 607.011 936.8 597.081C938.21 592.401 946.66 590.241 950.54 586.741C954.42 583.241 961.27 570.911 962.14 566.191C963.01 561.471 959.98 555.811 961.31 553.681C963.92 549.491 971.75 552.211 975.07 539.341C977.39 530.361 974.04 526.591 974.81 521.151C975.67 515.101 981.7 514.651 983.18 511.201C984.9 507.181 982.53 501.861 984.22 499.131C987.72 493.501 999.5 498.821 998.47 492.741C998.24 491.401 983.56 471.671 982.41 470.821C976.21 466.271 969.77 468.331 962.73 467.511L958.45 451.801C939.92 461.991 923.52 452.661 924.63 430.961C924.89 425.941 928.58 422.011 929.38 418.061C930.04 414.761 927.51 410.861 928.7 407.191C929.89 403.521 936.21 403.931 936.65 398.801C937.12 393.271 929.34 390.361 933.81 380.311C935.63 376.211 941.77 376.711 944.6 372.991C948.02 368.481 946.45 360.151 951.37 355.791C958.75 349.251 971.94 354.141 979.98 350.421C984.83 348.181 989.01 337.451 994.38 332.841C1014.85 315.281 1011.92 337.641 1024.39 341.101C1032.26 343.291 1038.16 335.791 1045.41 335.781C1052.66 335.781 1067.52 345.391 1072.35 350.941C1075.39 354.431 1080.75 365.931 1082.33 366.951C1086.92 369.901 1092.81 358.841 1097.63 356.141C1101.73 353.851 1107.4 354.471 1110.51 351.031C1113.38 347.861 1119.91 323.421 1117.47 319.831C1112.55 312.601 1085.06 313.031 1077.5 311.811C1066.89 310.101 1067.11 301.081 1062.45 294.891C1060.55 292.371 1055.76 291.861 1054.72 288.631C1052.71 282.381 1054.17 268.561 1051.97 261.411C1050.48 256.561 1039.71 245.681 1038.68 238.501C1037.93 233.281 1042.9 232.641 1042.4 228.011C1035.39 228.071 1027.66 225.441 1021.75 221.681C1016.56 218.381 994.7 198.121 999.3 191.921C1006.76 190.061 1032.59 185.161 1027.48 174.091C1025.94 170.751 1011.06 153.421 1007.48 150.031C1001.3 144.191 981.44 126.511 974.25 134.981C970.08 139.901 979.98 147.221 973.41 148.081C963.96 149.321 922.22 108.931 912.32 101.291C901.64 93.0508 867.48 74.6308 863.44 64.1808C862.46 61.6408 862.48 58.8208 862.52 56.1508C860.22 53.7808 821.57 65.6108 815.51 68.1008C792.2 77.6808 759.93 99.0508 733.66 100.211C725.41 100.571 699.89 99.0408 692.1 97.6408C680.58 95.5708 682.31 87.6108 677.04 84.2008C675.19 83.0008 661.94 78.5208 659.43 78.2508C652.26 77.4908 644.69 82.3808 640.56 77.2408C636.29 71.9208 639.39 65.7108 626.68 68.1608C629.29 72.4008 634.82 72.8908 637.16 78.6408C639.9 85.3708 637.39 89.7408 642.97 96.8108C649.08 104.551 660.09 102.651 656.18 116.621C653.99 124.461 647.67 127.551 652.64 140.071L644.79 139.961C646.9 133.341 639.72 129.781 638.86 126.711C637.15 120.571 647.15 120.311 643.61 110.231C638.72 96.3008 623.43 99.8808 613.25 105.701C608.79 108.251 605.72 113.501 602.58 115.021C597.71 117.371 589.56 117.221 583.31 119.731C566.39 126.531 559.2 140.501 535.68 142.091C527.19 142.661 520.77 139.391 512.66 140.921C508.14 141.781 486.61 154.671 483.67 157.991C478.96 163.301 481.41 170.621 477.62 175.921C475.31 179.141 467.56 182.101 463.69 185.981C457.49 192.201 437.82 216.301 435.27 223.511C434.19 226.551 435.58 231.251 433.85 234.071L428.73 235.071L420.81 224.021C424.75 243.641 429.63 263.181 416.78 280.961C415.02 283.391 397.25 303.271 395.91 304.051C391.8 306.461 388.05 305.471 384.76 306.891C375.59 310.851 361.19 336.841 348.74 344.821C336.37 352.751 328.57 346.501 322.97 348.861C321.9 349.311 305.7 360.361 303.82 361.851C291.67 371.501 290.26 377.461 282.9 388.901C279.08 394.841 263.55 404.971 261.89 407.861C260 411.141 261.6 415.881 259.86 419.821C258.89 422.021 254.85 424.131 253.21 427.161C249.75 433.531 238.25 449.501 251.68 449.631L258.2 437.721C263.43 436.461 269.3 440.111 273.79 439.791C277.22 439.541 279.76 436.541 282.31 436.201C286.08 435.701 289.87 438.761 293.52 437.651C298.15 436.241 300.65 422.421 307.72 421.991C317.86 421.381 345.12 437.351 338.83 450.821C343.43 455.141 342.86 447.781 345.63 445.691C348.93 443.191 354.1 444.661 356.79 440.831C347.52 432.991 347.12 426.731 352.04 416.061C360.14 398.501 376.17 385.761 393.41 377.501C405.73 371.601 414.35 376.351 423.37 373.931C425.64 373.321 426.94 365.801 432.19 364.311C437.7 362.751 451.88 362.411 459.22 361.371C462.86 360.861 466.29 358.261 469.97 357.981C481.73 357.071 499.37 371.061 508.22 361.421C510.67 358.751 509.64 352.381 511.9 351.781C516.85 350.451 527.23 352.931 524.72 359.921L546.69 353.931C548.66 361.521 541.41 361.811 538.82 365.021C536.23 368.231 536.42 372.241 532.65 374.841C527.6 378.331 515.08 378.851 508.72 379.911C505.71 383.061 520.19 400.521 520.64 406.981C520.82 409.611 519.14 412.261 519.12 414.861C519.1 417.961 521.35 420.871 520.45 424.421C519.11 429.731 507.66 433.151 509.49 439.881C510.92 445.121 526.07 462.911 530.33 469.201C536.27 477.971 539.36 488.981 547.84 495.721C551.86 496.611 553.01 489.101 556.77 486.881C558.72 485.731 582.44 475.371 584.61 474.761C588.43 473.701 600.16 472.291 598.65 478.781C598.35 480.061 581.64 485.751 577.17 489.291C571.91 493.451 569.02 499.661 563.68 503.771C559.62 506.901 552.29 508.741 549.75 511.821C546.81 515.381 547.31 520.631 544.77 524.831C542.23 529.031 534.36 534.201 530.76 538.801C523.11 548.571 518.34 560.071 516.86 572.491C518.38 577.421 530.02 573.911 532.69 580.751L524.9 588.491C536.55 598.411 530.69 623.441 549.14 621.241C557.44 620.251 587.91 608.821 591.38 609.871C596.98 613.331 595.27 615.721 591.42 619.431C588.68 622.071 570.17 635.951 567.16 637.141C560.13 639.931 554.22 640.131 546.69 639.671C546.44 648.271 550.12 655.281 548.24 664.201C547.15 669.341 542.04 675.881 540.14 682.071C525.24 730.651 520.76 784.131 480.55 822.311C474.83 827.741 463.74 831.811 456.94 836.671C447.44 843.461 431.08 860.191 419.82 859.631C415.7 859.431 410.68 855.511 408.76 856.391C403.25 858.901 391.91 876.891 384.85 882.501C379.89 886.441 374.33 887.821 369.82 891.451C360.61 898.841 351.86 914.291 337.96 913.371C333.16 913.051 329.22 908.281 325.38 907.741C324.29 907.591 305.54 909.101 303.9 909.351C297.94 910.251 274.76 915.211 274.85 922.401C274.9 926.991 285.98 935.581 278.86 945.401C272.4 945.231 272.98 937.871 267.93 933.381C266.13 931.781 257.75 927.081 255.95 927.431C251.92 932.601 252.53 938.431 249.31 944.821C247.36 948.691 239.39 958.741 235.99 961.481C221.48 973.181 201.73 960.851 216.91 991.361C207.72 989.661 187.46 996.141 184.91 985.411L180.98 985.381C181.36 996.291 157.1 1012.01 149.95 1003.37C147.76 1000.73 147.85 992.531 142.97 990.261C140.13 988.941 136.84 991.641 134.19 991.171C128.32 990.141 115.58 984.811 110.86 988.231C104.87 998.141 109.78 1019.73 102.14 1027.46C98.4 1031.24 89.78 1031.71 84.54 1033.84C76.52 1037.1 63.03 1040.36 58.98 1042.29C54.93 1044.22 38.06 1060.17 29.18 1064.42C23.64 1067.08 19.35 1068.03 13.08 1067.31C19.55 1076.57 9.04 1083.84 9.05 1088.3C9.09 1099.58 30.52 1089.4 38.17 1089.22C50.03 1088.94 61.5 1093.68 72.52 1096.79C79.47 1098.76 85.18 1094.41 89.48 1103.81C90.59 1106.24 96.44 1127.3 96.9 1130.37C97.66 1135.54 97.87 1157.36 96.03 1161.22C92.29 1169.07 80.3 1166.2 74.14 1167.31C57.46 1170.31 53.93 1189.7 49.71 1191.03L39.06 1189.21C43.5 1195.59 53.12 1194.42 58.01 1201.22C62.57 1207.56 58.87 1214.02 64.07 1219.15L69.07 1214.19C63.03 1205.52 62.8 1201.44 65.05 1191.17L70.91 1191.25L73.31 1198.89C85.08 1201.66 87.83 1197.8 96.03 1191.72C106.64 1208.05 112.62 1200.86 127.53 1203.62C132.5 1204.54 136.3 1208.55 140.16 1209.13C149.52 1210.55 168.17 1199.42 172.08 1207.15C175.7 1214.32 159.07 1218.01 159.01 1220.14C162.87 1225.14 169.53 1222.72 174.95 1223.15C178.25 1234.02 152.32 1234.12 147.52 1231.74C143.84 1229.91 143.66 1225.55 139.79 1223.34C135.24 1220.74 128.94 1221.12 124.01 1219.12L122.99 1231.15C114 1231.76 102.96 1231.66 100.95 1221.17L91.03 1225.2C93.75 1237.72 107.86 1230.81 116.07 1241.04C123.79 1250.66 120.02 1256.82 116.98 1267.08C128.72 1272.89 142.19 1271.78 153.44 1275.62C159.26 1277.6 162.77 1282.62 168.93 1283.09C173.6 1272 185.47 1257.86 196.83 1252.01C217.27 1241.48 218.81 1254.17 229.79 1253.14C233.96 1252.75 239.21 1246.72 243.52 1244.74C257.72 1238.22 263.09 1243.23 266.41 1221.66C268.39 1208.81 262.69 1198.44 277.03 1190.32C288.13 1184.03 330.04 1182.23 343.81 1183.21C349.79 1183.64 387.87 1194.17 377.81 1177.19C376.22 1174.5 368.46 1172.74 367.09 1167.74C365.62 1162.38 369.65 1160.8 370.05 1158.16C370.77 1153.4 360.09 1152.6 366.79 1148.14C370.17 1145.89 377.07 1149.29 378.98 1152.05C383.76 1158.96 378.15 1170.14 395.41 1167.23C404.79 1156.11 404.17 1139.59 422.79 1141.22C422.04 1147.25 416.49 1149.34 413.78 1155.17C412.42 1158.08 407.32 1175.39 407.76 1177.38C410.27 1188.73 432.62 1180.51 434.79 1194.12C428.79 1200.77 420.05 1193.97 411.81 1195.11C409.27 1195.46 408.03 1194.22 408.77 1198.17C410.16 1205.58 434.44 1233.09 441.82 1233.14C446.75 1233.91 447.98 1225.36 450.15 1224.97C452.88 1224.48 456.48 1226.71 459.53 1226.49C466.35 1226 470.11 1220.35 479.53 1221.22C495.67 1222.71 499.24 1237.12 504.08 1238.78C514.61 1242.38 532.68 1230.89 536.64 1240.21C539.21 1246.26 530.12 1245.87 525.38 1248.74C513.47 1255.94 502.39 1269.25 487.77 1269.25C478.58 1269.25 468.23 1265.13 457.83 1267.13C453.31 1268 446.93 1275.42 441.64 1277.06C439.85 1279.86 445.35 1290.04 446.14 1294.34C446.76 1297.7 443.5 1300.87 446.23 1306.56C447.89 1310.04 466.5 1322.35 469.79 1322.3C471.95 1322.27 474.8 1319.4 477.88 1319.15C484.14 1318.64 490.44 1319.36 496.69 1318.96C496.3 1308.16 501.54 1302.4 512.35 1301.48C521.33 1300.72 526.73 1306.75 535.7 1307.21C546.6 1307.78 555.83 1301.91 566.74 1303.06C561.78 1278.41 584.3 1271.85 603.95 1269.33C617.22 1267.63 628.67 1272.42 639.69 1261.14C645.74 1266.94 640.33 1274.55 644.58 1282.17C650.15 1292.15 660.83 1285.86 666.62 1294.06L660.91 1299.65C672.46 1319.19 674.65 1347.54 690.66 1363.97C700.74 1374.31 702.91 1366.15 711.92 1365.57C723.42 1364.82 722.8 1373.83 727.52 1379.07C733.99 1386.25 744.06 1393.54 749.47 1401.09C754.16 1407.64 755.46 1417 762.62 1421.91C791.96 1421.11 820.48 1435.99 849.63 1433.03C858.03 1432.18 862.09 1427.6 867.71 1426.96C873.54 1426.29 877.76 1429.09 884.55 1428.15C892.84 1427.01 898.99 1419.37 903.57 1418.97C908.44 1418.55 917.49 1424.29 921.52 1418.97C927.59 1410.95 920.44 1397.32 923.8 1389.44C925.03 1386.55 930.56 1384.71 933.37 1380.86C940.01 1371.75 937.91 1365.51 949.79 1357.32C961.67 1349.13 994.05 1334.21 999.52 1323.13C1000.9 1320.33 1002.83 1317.41 1002.49 1314.1C1002.24 1311.66 979.31 1280.17 975.4 1273.11C911.77 1158 916.59 994.541 943.09 869.061C950.56 833.691 961.63 799.191 972.61 764.831C962.4 760.221 956.56 751.251 948.3 744.731C943.67 741.081 933.18 737.221 931.01 735.041C928.84 732.861 928.96 728.411 924.41 724.641C914.68 716.581 902.19 719.561 897.88 703.221C894.62 690.841 899.55 679.021 910.69 672.811C924.33 665.221 943.97 655.671 959.47 653.651C965.62 652.851 972.09 654.411 978.24 653.431L982.31 638.531L994.42 637.651L994.44 637.621ZM278.92 100.111C286.95 97.5908 298.15 99.6508 302.66 107.341C307.17 115.031 305.05 127.601 316.76 129.221C332.31 124.341 307.17 111.701 305.74 104.231L310.84 95.1008C302.04 91.9508 283.36 71.4708 275.86 84.0708C272.37 89.9308 282.46 91.4108 278.92 100.111ZM431.61 210.911C434.05 209.131 449.67 199.081 446.78 196.021L423.64 205.921L424.91 213.931C430.92 215.731 430.07 212.031 431.62 210.911H431.61ZM1604.06 525.721C1603.24 516.891 1611.58 510.701 1618.69 507.401C1641.85 496.611 1688.79 502.151 1713.5 509.231C1720.02 511.101 1749.4 524.771 1752.02 522.861C1760.21 470.671 1761.42 413.761 1751.03 361.811C1740.15 307.401 1715.07 255.561 1653 252.011C1521.74 244.511 1391.22 339.961 1307.22 431.791C1177.15 573.981 1032.19 861.141 1020.46 1054.28C1020.3 1056.93 1018.82 1065.06 1023.4 1063.22C1030.81 1060.25 1044.67 1046.1 1052.23 1048.26C1065.72 1052.12 1066.84 1060.41 1074.3 1068.33C1079.04 1073.36 1091.87 1079.82 1094.52 1084.08C1098.3 1090.16 1099.57 1106.72 1108.4 1112.25C1112.63 1114.9 1117.02 1111.02 1121.19 1111.34C1128.42 1111.9 1138.5 1116.18 1146.08 1117.46C1151.92 1128.69 1139.01 1138.9 1138.39 1144.23C1136.76 1158.34 1141.99 1164.5 1143.99 1174.64C1146.17 1185.7 1137.09 1191.57 1137.04 1196.11C1137.01 1198.82 1141.2 1202.98 1141.92 1206.56C1142.88 1211.35 1146.32 1228.66 1146.56 1232.08C1147 1238.43 1142.49 1242.38 1142.21 1248.09C1141.69 1259 1152.73 1267.84 1141.36 1279.04C1138.48 1281.88 1133.15 1283.26 1130.96 1285.63C1128.33 1288.46 1128.19 1293.95 1123.44 1297.11C1115.76 1302.23 1100.01 1300.15 1092.43 1308.02C1195.63 1410.59 1358.58 1363.49 1464.78 1290.67C1617.78 1185.75 1745.79 962.601 1798.46 787.031C1814 735.221 1825.69 677.081 1812.93 623.661C1770.61 736.121 1706.33 841.251 1635.67 938.001C1566.96 1032.07 1502.41 1100.51 1404.02 1163.99C1372.05 1184.62 1327.84 1214.19 1294.52 1230.36C1291.82 1231.67 1290.03 1234.04 1286.27 1233.08C1278.07 1225.41 1350.18 1171.53 1356.24 1166.18C1463.26 1071.75 1560.21 950.891 1634.86 829.291C1689.81 739.781 1739.52 644.341 1749.1 537.711C1729.08 526.601 1707.63 517.951 1684.69 515.881L1604.06 525.721ZM530.74 367.891L520.6 367.021L517.76 357.891L506.77 371.851C509.1 374.961 528.77 374.121 530.74 367.891ZM566.71 489.771H563.75L556.73 497.731C560.33 498.841 569.26 492.231 566.71 489.771ZM578.71 619.661C570.12 620.281 561.69 623.181 553.41 625.391C550.67 626.121 547.87 624.051 548.79 628.581C551.94 644.121 574.59 628.131 578.71 619.661ZM2466.99 756.031C2450.9 741.081 2424.73 770.561 2414.5 781.461C2355.88 843.891 2310.24 926.371 2273.64 1003.28C2336 961.051 2405.23 907.311 2446.34 843.261C2457.36 826.091 2485.62 773.331 2466.99 756.031ZM2813.27 1131.16C2819.99 1137.49 2879.33 1091.25 2887.24 1084.24C2896.2 1076.3 2912.04 1061.28 2919.14 1052.19C2952.91 1008.98 2931.33 959.971 2883.26 1012.33C2853.82 1044.4 2832.28 1092.21 2813.26 1131.16H2813.27ZM1140.36 1121.18C1133.18 1123.04 1127.09 1118.66 1121.11 1117.8C1115.54 1117.01 1112.49 1121.83 1104.4 1116.13C1101.64 1114.19 1094.2 1103.46 1092.55 1100.01C1090.46 1095.63 1091.09 1090.3 1089.32 1087.25C1088.71 1086.21 1073.38 1073.27 1071.04 1071.56C1065.92 1067.83 1059.51 1066.52 1056.27 1064.2C1053.73 1062.39 1058.16 1057.03 1053.15 1055.43C1044.91 1052.8 1029.15 1067.86 1020.34 1070.54C1016.54 1135.89 1024.94 1206.66 1058.06 1264.38C1061.52 1270.4 1082.58 1302.05 1087.35 1302.44C1095.95 1296.65 1108.68 1297.35 1117.09 1292.74C1123.75 1289.08 1132.48 1274.68 1140.01 1269.59C1143.11 1258.88 1130.92 1251.75 1130.37 1243.93C1129.83 1236.31 1137.02 1233.42 1137.52 1230.17C1138.57 1223.38 1130.72 1200.73 1130.33 1192.16C1130.96 1185.96 1141.19 1184.77 1138.02 1174.55C1137.12 1171.66 1133.09 1170.34 1132.34 1166.07C1131.97 1163.94 1132.66 1138.39 1133.43 1137.14C1135.62 1133.58 1143.59 1131.84 1140.37 1121.18H1140.36Z" fill="black" fill-opacity="0.5"/>
<path d="M3103.09 1391.73C3054.75 1391.73 3016.85 1369.76 2989.39 1325.82C2967.42 1287.37 2956.43 1242.88 2956.43 1192.34C2956.43 1096.77 3009.16 985.263 3114.63 857.83C3215.69 736.988 3312.92 658.441 3406.29 622.188C3412.89 619.991 3418.38 618.892 3422.77 618.892C3429.36 618.892 3432.66 620.54 3432.66 623.836L3431.01 627.132C3431.01 628.23 3430.46 629.878 3429.36 632.075C3428.27 638.667 3420.58 647.455 3406.29 658.441C3305.23 725.453 3218.44 805.099 3145.94 897.378C3055.85 1010.53 3010.81 1116.54 3010.81 1215.41C3010.81 1309.89 3044.87 1357.13 3112.98 1357.13C3164.61 1357.13 3214.6 1332.41 3262.93 1282.97C3305.78 1240.13 3335.99 1191.24 3353.56 1136.32C3361.25 1114.34 3365.1 1090.18 3365.1 1063.81C3365.1 996.798 3337.09 963.292 3281.06 963.292C3248.1 963.292 3206.91 981.418 3157.47 1017.67C3143.19 1025.36 3133.85 1029.21 3129.46 1029.21L3126.16 1027.56C3123.96 1023.16 3122.87 1019.32 3122.87 1016.02C3122.87 998.446 3142.64 978.672 3182.19 956.7C3222.83 934.729 3252.5 923.743 3271.17 923.743C3317.31 923.743 3354.66 939.673 3383.22 971.531C3411.79 1002.29 3426.07 1040.74 3426.07 1086.88C3426.07 1158.29 3389.82 1226.95 3317.31 1292.86C3245.9 1358.77 3174.5 1391.73 3103.09 1391.73ZM3893.46 1395.03C3887.97 1395.03 3885.22 1391.18 3885.22 1383.49C3885.22 1379.1 3889.07 1375.25 3896.76 1371.96C3917.63 1362.07 3928.07 1351.63 3928.07 1340.65C3928.07 1321.97 3902.8 1306.04 3852.27 1292.86C3812.72 1282.97 3779.76 1278.03 3753.4 1278.03C3689.68 1280.23 3597.95 1303.3 3478.21 1347.24C3461.73 1353.83 3449.1 1357.13 3440.31 1357.13C3424.93 1357.13 3417.24 1351.08 3417.24 1339C3417.24 1321.42 3427.12 1304.94 3446.9 1289.56C3466.67 1274.18 3486.45 1266.49 3506.22 1266.49C3578.73 1243.43 3664.41 1198.38 3763.28 1131.37C3839.09 1080.84 3905 1028.11 3961.03 973.179C4045.62 890.787 4087.91 820.479 4087.91 762.255C4087.91 718.312 4062.09 696.341 4010.46 696.341C3954.43 696.341 3890.72 720.509 3819.31 768.846C3750.1 816.084 3706.16 867.167 3687.48 922.096C3684.19 931.983 3679.24 936.926 3672.65 936.926C3669.36 936.926 3667.71 934.18 3667.71 928.687C3667.71 925.391 3668.26 922.096 3669.36 918.8C3683.64 848.492 3722.09 789.17 3784.71 740.833C3848.42 692.496 3919.28 668.328 3997.28 668.328C4035.73 668.328 4066.49 679.863 4089.56 702.932C4112.63 724.904 4124.16 755.114 4124.16 793.564C4124.16 885.843 4056.6 973.728 3921.48 1057.22C3906.1 1066.01 3886.87 1077.54 3863.8 1091.82L3783.06 1142.91C3699.57 1197.83 3650.13 1232.99 3634.75 1248.37C3839.09 1248.37 3941.25 1277.48 3941.25 1335.7C3941.25 1363.17 3928.07 1382.39 3901.7 1393.38C3899.51 1394.48 3896.76 1395.03 3893.46 1395.03Z" fill="black" fill-opacity="0.5"/>
</svg>
