<svg width="432" height="90" viewBox="0 0 432 90" fill="none" xmlns="http://www.w3.org/2000/svg">
<path d="M327.53 16.7305C327.47 16.9105 327.72 17.1405 327.72 17.2005V45.1305L348.7 16.9205H366.48L366.6 17.3905L345.63 45.2605L370.62 87.7505C370.7 87.9505 370.48 88.3905 370.34 88.3905H353.03L335.91 58.4905L327.73 68.9305V88.1205C327.56 88.3905 327.35 88.3805 327.08 88.4105C324.02 88.7705 319.27 88.5305 315.98 88.6005C315.2 88.6205 311.9 88.7105 311.48 88.4205L311.33 88.1405L310.99 16.7405H327.54L327.53 16.7305Z" fill="black" fill-opacity="0.4"/>
<path d="M120.03 17.1098C120.62 29.4098 119.88 41.7698 120.21 54.0798C120.36 59.5298 120.02 67.9098 123.91 72.0198C132.1 80.6798 144.72 71.7098 144.69 61.4198L144.76 16.7298C145.12 16.2198 148.19 16.7298 148.9 16.7498C152.4 16.8298 156.2 16.4898 159.64 16.7298C159.88 16.7498 160.62 16.7998 160.68 17.0498C160.71 17.5498 160.48 18.0198 160.47 18.5198C160.32 24.5098 160.34 30.5998 160.28 36.5798C160.19 45.7098 160.61 55.3698 160.11 64.4298C158.89 86.6398 134.54 96.0598 116.33 85.6098C108 80.8398 104.52 70.5898 104.03 61.4198C103.27 47.1098 104.62 32.1398 104.03 17.7698L104.32 17.1198H120.03V17.1098Z" fill="black" fill-opacity="0.4"/>
<path d="M230.46 31.0322V43.7322C230.46 43.8322 230.75 44.1522 230.65 44.3922H254.45L254.74 45.0422L254.92 58.5022L230.68 58.9022C230.53 63.1222 230.79 67.3622 230.66 71.5822C230.63 72.4322 230.08 73.6022 230.75 74.3022H260V88.4122H214.38C214.02 88.4122 213.74 87.5522 213.71 87.2022C213.27 82.7622 213.89 77.7422 213.92 73.2822C214.06 54.4322 213.63 35.5622 214.18 16.7422L258.56 16.7822C258.8 16.8422 258.83 17.0122 258.87 17.2222C259.16 18.7922 258.82 21.8422 258.87 23.6222C258.88 24.1122 259.07 24.5722 259.07 25.1122C259.1 26.9522 259.36 29.4322 258.59 31.0422H230.47L230.46 31.0322Z" fill="black" fill-opacity="0.4"/>
<path d="M59.5501 16.5403C59.6701 16.5803 59.8601 16.8403 59.8301 17.0003L38.2401 62.5703C38.2201 69.3903 38.2101 76.2203 38.0001 83.0203C37.9701 83.8803 38.1901 87.9903 37.8201 88.2903C37.6701 88.4103 37.1901 88.5403 36.9801 88.5403C32.4501 87.8203 26.9301 88.9703 22.4801 88.3903C22.1601 88.3503 21.9101 88.3203 21.7401 88.0103L21.4201 62.1903L0.580078 17.2203C0.740078 16.6903 3.07008 16.9603 3.68008 16.9303C7.06008 16.7403 10.4401 16.6403 13.8401 16.5503C14.7101 16.5303 17.1401 16.0103 17.8001 16.5203L30.4801 48.1403L42.9901 16.5403H59.5401H59.5501Z" fill="black" fill-opacity="0.4"/>
<path d="M415.2 17.2016C415.22 17.1116 415.49 16.6916 415.58 16.6416C420.41 16.4716 425.31 16.5416 430.17 16.5616C430.52 16.5616 431.66 16.2416 431.77 16.6816L431.72 87.7216C431.69 87.8516 431.35 88.2116 431.3 88.2116H415.69C415.63 88.2116 415.4 87.9616 415.22 88.0216V17.2016H415.2Z" fill="black" fill-opacity="0.4"/>
<path d="M154.46 0.370003V9.12C154.46 9.19 154.03 9.78 153.99 9.78H112.6C112.33 9.61 112.34 9.41 112.31 9.13C111.98 6.36 112.47 2.82 112.51 0L154.46 0.380005V0.370003Z" fill="black" fill-opacity="0.4"/>
</svg>
